<svg xmlns="http://www.w3.org/2000/svg" xmlns:xlink="http://www.w3.org/1999/xlink" width="500" zoomAndPan="magnify" viewBox="0 0 375 374.999991" height="500" preserveAspectRatio="xMidYMid meet" version="1.0"><defs><clipPath id="c32947b3a1"><path d="M 17 16.777344 L 352 16.777344 L 352 351 L 17 351 Z M 17 16.777344 " clip-rule="nonzero"/></clipPath></defs><rect x="-37.5" width="450" fill="#ffffff" y="-37.499999" height="449.999989" fill-opacity="1"/><rect x="-37.5" width="450" fill="#fc81df" y="-37.499999" height="449.999989" fill-opacity="1"/><path fill="#f4c5b0" d="M 348.691406 168.242188 C 343.199219 161.71875 335.503906 157.210938 326.421875 155.1875 C 323.664062 154.589844 320.875 154.207031 318.058594 154.035156 C 319.960938 152.816406 321.816406 151.535156 323.617188 150.183594 L 324.820312 149.269531 C 328.421875 146.601562 331.5 143.429688 334.058594 139.75 C 335.289062 137.925781 336.304688 135.992188 337.097656 133.941406 C 337.890625 131.890625 338.441406 129.773438 338.753906 127.597656 C 339.066406 125.421875 339.128906 123.238281 338.945312 121.046875 C 338.761719 118.855469 338.332031 116.714844 337.660156 114.617188 C 334.652344 105.230469 327.046875 97.425781 317.304688 93.746094 C 312.976562 92.128906 308.503906 91.328125 303.878906 91.351562 C 299.65625 91.363281 295.523438 91.980469 291.484375 93.207031 C 288.785156 94.015625 286.167969 95.027344 283.628906 96.242188 C 284.703125 94.246094 285.695312 92.214844 286.613281 90.148438 L 287.1875 88.824219 C 289.035156 84.738281 290.175781 80.46875 290.609375 76.007812 C 290.785156 74 290.753906 71.996094 290.511719 69.996094 C 290.269531 67.996094 289.820312 66.042969 289.171875 64.136719 C 288.519531 62.230469 287.675781 60.410156 286.640625 58.679688 C 285.609375 56.949219 284.40625 55.34375 283.035156 53.867188 C 277.039062 47.355469 268.175781 43.648438 258.691406 43.648438 C 256.964844 43.644531 255.25 43.769531 253.539062 44.023438 C 245.082031 45.257812 237.207031 49.441406 230.742188 56.097656 C 224.9375 62.074219 220.894531 69.09375 217.851562 76.261719 C 218.734375 69.480469 218.867188 62.6875 218.25 55.878906 C 218.207031 55.339844 218.152344 54.851562 218.101562 54.359375 C 217.71875 49.890625 216.628906 45.597656 214.828125 41.484375 C 209.996094 30.914062 199.648438 24.347656 187.851562 24.347656 C 184.046875 24.375 180.34375 25.015625 176.75 26.261719 C 173.152344 27.507812 169.851562 29.296875 166.847656 31.632812 C 160.09375 36.839844 155.253906 44.335938 152.851562 53.304688 C 149.054688 67.5 151.632812 81.855469 154.65625 94.019531 C 154.808594 94.636719 154.957031 95.261719 155.101562 95.886719 C 155.566406 97.847656 156.089844 100.027344 156.804688 102.324219 C 156.199219 102.570312 155.589844 102.816406 154.988281 103.085938 C 152.789062 95.699219 149.746094 88.671875 145.855469 82.015625 C 141.96875 75.355469 137.34375 69.253906 131.988281 63.703125 L 131.015625 62.726562 C 127.902344 59.496094 124.355469 56.847656 120.375 54.777344 C 116.25 52.699219 111.871094 51.65625 107.25 51.652344 C 93.152344 51.652344 80.355469 62.378906 76.820312 77.210938 C 74.839844 85.503906 75.785156 94.375 79.554688 102.859375 C 80.703125 105.429688 82.042969 107.894531 83.570312 110.257812 C 81.421875 109.449219 79.273438 108.714844 77.125 108.0625 L 75.746094 107.667969 C 71.964844 106.527344 68.097656 105.929688 64.144531 105.871094 C 63.609375 105.871094 63.109375 105.871094 62.582031 105.90625 C 60.382812 106 58.222656 106.339844 56.097656 106.921875 C 53.976562 107.503906 51.945312 108.320312 50.007812 109.363281 C 48.070312 110.40625 46.273438 111.65625 44.621094 113.105469 C 42.964844 114.558594 41.496094 116.175781 40.207031 117.960938 C 34.441406 125.957031 32.691406 136.703125 35.515625 146.707031 C 37.835938 154.917969 42.992188 162.199219 50.429688 167.765625 C 52.699219 169.453125 55.082031 170.957031 57.582031 172.28125 C 55.320312 172.613281 53.078125 172.996094 50.859375 173.488281 L 49.472656 173.8125 C 45.078125 174.757812 40.953125 176.386719 37.09375 178.691406 C 35.21875 179.84375 33.5 181.195312 31.929688 182.738281 C 30.363281 184.28125 28.988281 185.980469 27.808594 187.835938 C 26.625 189.691406 25.667969 191.65625 24.933594 193.730469 C 24.195312 195.800781 23.703125 197.929688 23.453125 200.117188 C 22.324219 209.90625 26.039062 220.144531 33.386719 227.472656 C 39.425781 233.535156 47.480469 237.375 56.6875 238.613281 C 59.09375 238.933594 61.511719 239.089844 63.941406 239.085938 C 64.339844 239.085938 64.738281 239.054688 65.132812 239.042969 C 63.335938 240.421875 61.582031 241.863281 59.898438 243.367188 L 58.785156 244.375 C 55.421875 247.335938 52.621094 250.761719 50.386719 254.644531 C 49.3125 256.566406 48.464844 258.582031 47.851562 260.691406 C 47.234375 262.804688 46.863281 264.957031 46.738281 267.152344 C 46.613281 269.351562 46.734375 271.53125 47.105469 273.699219 C 47.472656 275.867188 48.082031 277.964844 48.929688 279.996094 C 52.726562 289.113281 60.972656 296.222656 70.988281 299.058594 C 74.324219 300 77.726562 300.464844 81.191406 300.453125 C 86.578125 300.433594 91.769531 299.421875 96.765625 297.417969 C 99.382812 296.378906 101.910156 295.144531 104.339844 293.722656 C 103.449219 295.796875 102.625 297.902344 101.890625 300.03125 C 101.730469 300.488281 101.566406 300.953125 101.417969 301.421875 C 99.925781 305.648438 99.152344 310 99.097656 314.480469 C 99.179688 331.40625 112.75 344.164062 130.671875 344.164062 C 133.398438 344.164062 136.089844 343.847656 138.742188 343.222656 C 147.050781 341.253906 154.550781 336.414062 160.425781 329.242188 C 162.214844 327.058594 163.824219 324.753906 165.257812 322.324219 C 165.488281 324.582031 165.800781 326.824219 166.199219 329.042969 C 166.289062 329.582031 166.386719 330.070312 166.46875 330.460938 C 167.226562 334.878906 168.675781 339.058594 170.816406 342.996094 C 171.449219 344.128906 172.15625 345.214844 172.933594 346.253906 C 173.710938 347.292969 174.558594 348.277344 175.46875 349.203125 C 176.378906 350.128906 177.34375 350.988281 178.371094 351.785156 C 179.398438 352.582031 180.472656 353.308594 181.59375 353.960938 C 182.71875 354.613281 183.878906 355.1875 185.078125 355.683594 C 186.277344 356.183594 187.507812 356.597656 188.761719 356.929688 C 190.019531 357.261719 191.289062 357.511719 192.578125 357.675781 C 193.867188 357.835938 195.164062 357.914062 196.460938 357.902344 C 198.578125 357.878906 200.675781 357.664062 202.753906 357.253906 C 204.828125 356.847656 206.851562 356.253906 208.820312 355.472656 C 210.789062 354.695312 212.667969 353.742188 214.460938 352.617188 C 216.253906 351.492188 217.929688 350.214844 219.484375 348.785156 C 225.773438 343.023438 229.957031 335.152344 231.589844 326.007812 C 232.082031 323.242188 232.355469 320.453125 232.414062 317.640625 C 233.703125 319.46875 235.050781 321.257812 236.46875 323.003906 C 236.777344 323.390625 237.101562 323.777344 237.441406 324.175781 C 240.261719 327.660156 243.570312 330.605469 247.363281 333.003906 C 249.65625 334.410156 252.09375 335.480469 254.683594 336.214844 C 257.269531 336.949219 259.90625 337.320312 262.597656 337.332031 C 275.824219 337.332031 288.1875 327.875 292.671875 314.332031 C 295.355469 306.238281 295.15625 297.320312 292.132812 288.585938 C 291.203125 285.925781 290.078125 283.355469 288.757812 280.871094 C 290.8125 281.859375 292.898438 282.773438 295.019531 283.605469 L 296.328125 284.109375 C 300.496094 285.777344 304.816406 286.734375 309.300781 286.980469 C 309.691406 286.980469 310.082031 286.980469 310.464844 286.980469 C 312.617188 286.984375 314.742188 286.753906 316.839844 286.289062 C 318.941406 285.824219 320.964844 285.136719 322.910156 284.222656 C 324.859375 283.308594 326.683594 282.191406 328.382812 280.875 C 330.082031 279.558594 331.613281 278.070312 332.984375 276.414062 C 339.109375 268.9375 341.636719 258.53125 339.710938 248.550781 C 338.101562 240.179688 333.574219 232.488281 326.640625 226.3125 C 324.53125 224.441406 322.289062 222.742188 319.917969 221.21875 C 322.195312 221.078125 324.460938 220.875 326.703125 220.570312 L 328.117188 220.371094 C 332.570312 219.792969 336.816406 218.523438 340.851562 216.554688 C 342.816406 215.566406 344.644531 214.367188 346.335938 212.960938 C 348.03125 211.554688 349.542969 209.980469 350.878906 208.230469 C 352.210938 206.480469 353.332031 204.605469 354.238281 202.601562 C 355.148438 200.601562 355.820312 198.519531 356.253906 196.367188 C 358.226562 186.699219 355.390625 176.1875 348.691406 168.242188 Z M 348.691406 168.242188 " fill-opacity="1" fill-rule="nonzero"/><g clip-path="url(#c32947b3a1)"><path fill="#ffffff" d="M 343.363281 160.699219 C 337.871094 154.179688 330.175781 149.660156 321.09375 147.644531 C 318.335938 147.046875 315.546875 146.664062 312.730469 146.492188 C 314.632812 145.273438 316.488281 143.992188 318.289062 142.640625 C 318.675781 142.355469 319.058594 142.0625 319.492188 141.730469 C 323.09375 139.058594 326.171875 135.886719 328.730469 132.207031 C 329.960938 130.386719 330.976562 128.449219 331.769531 126.398438 C 332.5625 124.347656 333.113281 122.234375 333.425781 120.058594 C 333.738281 117.878906 333.804688 115.695312 333.621094 113.503906 C 333.4375 111.3125 333.007812 109.171875 332.339844 107.078125 C 329.324219 97.691406 321.722656 89.886719 311.980469 86.207031 C 307.648438 84.585938 303.175781 83.789062 298.550781 83.808594 C 294.328125 83.820312 290.195312 84.4375 286.152344 85.660156 C 283.453125 86.472656 280.835938 87.488281 278.292969 88.707031 C 279.367188 86.710938 280.363281 84.679688 281.28125 82.613281 L 281.855469 81.285156 C 283.699219 77.203125 284.839844 72.933594 285.277344 68.472656 C 285.453125 66.464844 285.421875 64.460938 285.179688 62.460938 C 284.9375 60.460938 284.492188 58.507812 283.839844 56.597656 C 283.1875 54.691406 282.34375 52.875 281.308594 51.144531 C 280.277344 49.414062 279.074219 47.808594 277.703125 46.328125 C 271.6875 39.8125 262.804688 36.085938 253.34375 36.085938 C 251.617188 36.082031 249.898438 36.207031 248.191406 36.460938 C 239.742188 37.714844 231.859375 41.898438 225.394531 48.554688 C 219.585938 54.53125 215.542969 61.554688 212.503906 68.71875 C 213.386719 61.9375 213.515625 55.144531 212.902344 48.335938 C 212.859375 47.800781 212.804688 47.3125 212.757812 46.816406 C 212.371094 42.347656 211.277344 38.054688 209.480469 33.945312 C 204.65625 23.394531 194.320312 16.828125 182.523438 16.828125 C 178.714844 16.851562 175.011719 17.484375 171.414062 18.726562 C 167.8125 19.972656 164.507812 21.757812 161.5 24.089844 C 154.742188 29.300781 149.902344 36.792969 147.503906 45.757812 C 143.707031 59.953125 146.285156 74.308594 149.308594 86.472656 C 149.464844 87.089844 149.609375 87.714844 149.753906 88.335938 C 150.214844 90.292969 150.742188 92.476562 151.457031 94.773438 C 150.847656 95.019531 150.246094 95.265625 149.640625 95.535156 C 147.441406 88.144531 144.398438 81.121094 140.507812 74.460938 C 136.617188 67.804688 131.996094 61.699219 126.636719 56.152344 L 125.667969 55.167969 C 122.554688 51.9375 119.007812 49.285156 115.027344 47.214844 C 110.898438 45.136719 106.523438 44.09375 101.902344 44.085938 C 87.808594 44.085938 75.003906 54.816406 71.472656 69.648438 C 69.488281 77.941406 70.433594 86.8125 74.203125 95.296875 C 75.355469 97.867188 76.695312 100.332031 78.226562 102.695312 C 76.101562 101.886719 73.953125 101.15625 71.78125 100.5 L 70.402344 100.105469 C 66.621094 98.964844 62.753906 98.367188 58.800781 98.308594 C 58.265625 98.308594 57.765625 98.308594 57.238281 98.34375 C 55.039062 98.4375 52.878906 98.777344 50.757812 99.359375 C 48.632812 99.945312 46.605469 100.757812 44.667969 101.800781 C 42.730469 102.84375 40.933594 104.09375 39.28125 105.542969 C 37.625 106.996094 36.15625 108.613281 34.871094 110.398438 C 29.101562 118.394531 27.351562 129.140625 30.171875 139.144531 C 32.484375 147.375 37.640625 154.683594 45.078125 160.222656 C 47.347656 161.910156 49.734375 163.417969 52.234375 164.738281 C 49.976562 165.074219 47.726562 165.453125 45.507812 165.945312 L 44.125 166.269531 C 39.738281 167.21875 35.621094 168.84375 31.769531 171.148438 C 29.894531 172.300781 28.171875 173.648438 26.601562 175.191406 C 25.03125 176.734375 23.652344 178.433594 22.46875 180.289062 C 21.285156 182.144531 20.324219 184.109375 19.585938 186.183594 C 18.851562 188.257812 18.355469 190.386719 18.101562 192.574219 C 16.976562 202.363281 20.691406 212.601562 28.042969 219.929688 C 34.074219 225.964844 42.132812 229.8125 51.34375 231.050781 C 53.75 231.367188 56.164062 231.527344 58.59375 231.523438 C 58.996094 231.523438 59.386719 231.488281 59.785156 231.480469 C 57.996094 232.855469 56.25 234.296875 54.554688 235.800781 C 54.195312 236.117188 53.839844 236.441406 53.4375 236.8125 C 50.070312 239.78125 47.273438 243.210938 45.042969 247.105469 C 43.96875 249.023438 43.125 251.039062 42.507812 253.152344 C 41.894531 255.261719 41.523438 257.417969 41.394531 259.613281 C 41.269531 261.808594 41.390625 263.988281 41.761719 266.15625 C 42.132812 268.324219 42.738281 270.425781 43.585938 272.453125 C 47.382812 281.546875 55.628906 288.675781 65.644531 291.519531 C 68.980469 292.457031 72.382812 292.921875 75.847656 292.914062 C 81.234375 292.890625 86.425781 291.875 91.421875 289.871094 C 94.042969 288.835938 96.570312 287.605469 99 286.179688 C 98.101562 288.25 97.285156 290.351562 96.546875 292.484375 C 96.386719 292.945312 96.230469 293.410156 96.074219 293.878906 C 94.582031 298.105469 93.808594 302.457031 93.753906 306.941406 C 93.835938 323.859375 107.410156 336.625 125.328125 336.625 C 128.066406 336.625 130.765625 336.308594 133.433594 335.679688 C 141.746094 333.707031 149.242188 328.871094 155.113281 321.695312 C 156.894531 319.515625 158.496094 317.210938 159.921875 314.78125 C 160.148438 317.039062 160.460938 319.277344 160.859375 321.503906 C 160.953125 322.039062 161.046875 322.523438 161.128906 322.914062 C 161.890625 327.332031 163.339844 331.511719 165.480469 335.453125 C 166.113281 336.589844 166.816406 337.675781 167.59375 338.714844 C 168.375 339.753906 169.21875 340.734375 170.128906 341.660156 C 171.039062 342.585938 172.007812 343.449219 173.03125 344.246094 C 174.058594 345.039062 175.132812 345.765625 176.253906 346.417969 C 177.378906 347.070312 178.539062 347.644531 179.742188 348.144531 C 180.941406 348.640625 182.167969 349.054688 183.425781 349.386719 C 184.679688 349.722656 185.953125 349.96875 187.242188 350.132812 C 188.53125 350.296875 189.824219 350.371094 191.125 350.359375 C 193.242188 350.339844 195.335938 350.121094 197.414062 349.714844 C 199.492188 349.308594 201.515625 348.714844 203.480469 347.933594 C 205.449219 347.15625 207.328125 346.203125 209.121094 345.078125 C 210.914062 343.953125 212.589844 342.675781 214.148438 341.242188 C 220.4375 335.488281 224.621094 327.617188 226.257812 318.472656 C 226.742188 315.703125 227.015625 312.914062 227.074219 310.105469 C 228.363281 311.933594 229.710938 313.71875 231.128906 315.441406 C 231.445312 315.828125 231.761719 316.214844 232.101562 316.609375 C 234.925781 320.097656 238.234375 323.039062 242.027344 325.441406 C 244.316406 326.84375 246.757812 327.914062 249.34375 328.652344 C 251.929688 329.386719 254.566406 329.757812 257.257812 329.769531 C 270.484375 329.769531 282.847656 320.3125 287.332031 306.769531 C 290.019531 298.671875 289.824219 289.757812 286.796875 280.988281 C 285.867188 278.332031 284.742188 275.761719 283.417969 273.28125 C 285.476562 274.265625 287.5625 275.183594 289.679688 276.015625 L 290.992188 276.519531 C 295.15625 278.1875 299.480469 279.144531 303.960938 279.390625 C 304.351562 279.390625 304.746094 279.390625 305.125 279.390625 C 307.277344 279.394531 309.402344 279.167969 311.503906 278.699219 C 313.601562 278.234375 315.625 277.546875 317.574219 276.632812 C 319.519531 275.71875 321.34375 274.605469 323.042969 273.285156 C 324.742188 271.96875 326.277344 270.480469 327.644531 268.824219 C 333.800781 261.378906 336.324219 250.984375 334.402344 241.003906 C 332.789062 232.632812 328.269531 224.941406 321.335938 218.765625 C 319.222656 216.894531 316.976562 215.199219 314.605469 213.671875 C 316.882812 213.53125 319.148438 213.328125 321.394531 213.019531 C 321.875 212.957031 322.359375 212.886719 322.804688 212.816406 C 327.261719 212.246094 331.503906 210.976562 335.539062 209.007812 C 337.507812 208.019531 339.335938 206.820312 341.03125 205.414062 C 342.722656 204.011719 344.238281 202.433594 345.574219 200.683594 C 346.910156 198.9375 348.03125 197.058594 348.941406 195.058594 C 349.851562 193.054688 350.523438 190.976562 350.957031 188.820312 C 352.875 179.160156 350.046875 168.628906 343.363281 160.699219 Z M 343.363281 160.699219 " fill-opacity="1" fill-rule="nonzero"/></g><path fill="#ffd655" d="M 221.582031 152.535156 C 221.582031 152.472656 221.582031 152.410156 221.554688 152.34375 C 221.425781 152.378906 221.292969 152.402344 221.160156 152.417969 L 221.160156 152.75 C 221.296875 152.671875 221.4375 152.601562 221.582031 152.535156 Z M 221.582031 152.535156 " fill-opacity="1" fill-rule="nonzero"/><path fill="#f8bc2c" d="M 256.257812 181.613281 C 256.171875 174.804688 254.953125 168.203125 252.601562 161.8125 C 248.6875 148.496094 241.820312 136.0625 231.246094 126.871094 C 226.429688 122.664062 221.070312 119.320312 215.171875 116.839844 C 219.191406 123.273438 222.25 130.136719 224.355469 137.421875 C 226.71875 143.8125 227.945312 150.414062 228.035156 157.226562 C 228.765625 166.433594 227.964844 175.914062 224.394531 184.480469 C 223.023438 187.777344 221.28125 190.871094 219.167969 193.753906 C 216.011719 200.535156 211.914062 206.6875 206.875 212.21875 C 203.523438 215.964844 199.738281 219.207031 195.523438 221.945312 C 191.019531 224.785156 185.910156 226.386719 180.800781 227.75 C 171.175781 230.324219 161.503906 232.320312 151.503906 231.1875 C 149.226562 230.929688 146.96875 230.550781 144.730469 230.050781 C 140.085938 229.863281 135.535156 229.109375 131.078125 227.789062 C 128.539062 227.023438 126.058594 226.097656 123.636719 225.011719 C 125.707031 228.273438 128.046875 231.328125 130.660156 234.175781 C 134.550781 238.398438 138.925781 242.035156 143.785156 245.089844 C 148.648438 248.140625 153.824219 250.503906 159.320312 252.171875 C 163.769531 253.5 168.3125 254.261719 172.953125 254.453125 C 175.191406 254.949219 177.449219 255.328125 179.726562 255.589844 C 189.734375 256.722656 199.398438 254.726562 209.027344 252.152344 C 214.132812 250.789062 219.234375 249.183594 223.75 246.347656 C 227.964844 243.605469 231.746094 240.363281 235.097656 236.617188 C 240.140625 231.089844 244.238281 224.9375 247.390625 218.15625 C 249.5 215.265625 251.234375 212.164062 252.601562 208.859375 C 256.1875 200.304688 256.988281 190.824219 256.257812 181.613281 Z M 249.421875 177.136719 C 249.421875 177.023438 249.421875 176.917969 249.421875 176.804688 C 249.550781 176.785156 249.679688 176.761719 249.808594 176.730469 L 249.839844 176.921875 C 249.695312 176.984375 249.554688 177.054688 249.421875 177.136719 Z M 249.421875 177.136719 " fill-opacity="1" fill-rule="nonzero"/><path fill="#ffd655" d="M 144.714844 230.050781 C 146.953125 230.550781 149.210938 230.929688 151.488281 231.1875 C 161.488281 232.320312 171.160156 230.324219 180.785156 227.75 C 185.890625 226.386719 190.988281 224.785156 195.507812 221.945312 C 199.722656 219.207031 203.507812 215.964844 206.859375 212.21875 C 211.898438 206.6875 215.996094 200.535156 219.152344 193.753906 C 221.265625 190.871094 223.007812 187.777344 224.378906 184.480469 C 227.949219 175.898438 228.75 166.433594 228.019531 157.226562 C 227.929688 150.414062 226.703125 143.8125 224.339844 137.421875 C 222.234375 130.136719 219.171875 123.273438 215.15625 116.839844 C 213.691406 116.226562 212.203125 115.664062 210.683594 115.1875 C 208.648438 113.808594 206.472656 112.695312 204.164062 111.847656 C 200.941406 110.6875 197.523438 110.414062 194.113281 110.425781 L 193.640625 110.339844 C 190.472656 109.445312 187.25 109.167969 183.976562 109.511719 C 183.789062 109.511719 183.59375 109.511719 183.402344 109.542969 C 182.566406 109.628906 181.730469 109.757812 180.898438 109.878906 C 168.234375 108.460938 155.945312 113.488281 145.800781 120.808594 C 145.183594 121.253906 144.601562 121.738281 144 122.191406 C 138.628906 125.382812 133.921875 129.355469 129.875 134.117188 C 126.757812 137.03125 124.164062 140.351562 122.09375 144.082031 C 120.957031 146.15625 119.980469 148.304688 119.15625 150.519531 C 117.027344 155.066406 115.425781 159.789062 114.355469 164.691406 C 112.941406 170.84375 112.214844 177.078125 112.175781 183.390625 C 112.136719 189.699219 112.785156 195.941406 114.125 202.109375 C 115.9375 210.308594 119.101562 217.949219 123.613281 225.03125 C 126.035156 226.117188 128.515625 227.042969 131.058594 227.808594 C 135.515625 229.125 140.070312 229.871094 144.714844 230.050781 Z M 221.554688 152.339844 C 221.554688 152.402344 221.554688 152.46875 221.582031 152.53125 C 221.441406 152.597656 221.308594 152.667969 221.175781 152.746094 L 221.175781 152.414062 C 221.304688 152.394531 221.429688 152.371094 221.554688 152.339844 Z M 221.554688 152.339844 " fill-opacity="1" fill-rule="nonzero"/><path fill="#ffd655" d="M 192.929688 50.085938 C 192.894531 49.726562 192.859375 49.351562 192.816406 48.957031 C 192.652344 46.652344 192.128906 44.429688 191.246094 42.289062 C 188.023438 35.203125 179.210938 35.746094 173.765625 39.941406 C 170.285156 42.625 168.03125 46.667969 166.898438 50.910156 C 164.269531 60.730469 166.386719 71.949219 168.792969 81.628906 C 169.808594 85.722656 170.574219 90.015625 172.660156 93.738281 C 175.882812 99.453125 180.996094 98.425781 183.878906 93.167969 C 185.671875 89.898438 187.214844 86.515625 188.511719 83.015625 C 189.804688 79.519531 190.835938 75.945312 191.601562 72.296875 C 192.367188 68.648438 192.863281 64.960938 193.085938 61.238281 C 193.308594 57.515625 193.253906 53.800781 192.929688 50.085938 Z M 192.929688 50.085938 " fill-opacity="1" fill-rule="nonzero"/><path fill="#ffd655" d="M 262.929688 74.480469 L 263.378906 73.445312 C 264.363281 71.351562 264.992188 69.15625 265.269531 66.859375 C 265.894531 59.085938 257.957031 55.277344 251.152344 56.289062 C 246.800781 56.941406 242.859375 59.371094 239.796875 62.519531 C 232.707031 69.8125 229.054688 80.636719 226.453125 90.261719 C 225.34375 94.332031 223.917969 98.453125 223.917969 102.714844 C 223.917969 109.265625 228.90625 110.863281 233.988281 107.683594 C 237.148438 105.703125 240.152344 103.5 242.988281 101.078125 C 245.828125 98.65625 248.472656 96.039062 250.921875 93.226562 C 253.375 90.414062 255.605469 87.4375 257.617188 84.296875 C 259.628906 81.152344 261.398438 77.882812 262.929688 74.480469 Z M 262.929688 74.480469 " fill-opacity="1" fill-rule="nonzero"/><path fill="#ffd655" d="M 306.257812 126.574219 L 307.160156 125.890625 C 309.042969 124.539062 310.664062 122.933594 312.027344 121.0625 C 316.359375 114.582031 311.292969 107.386719 304.855469 104.96875 C 300.75 103.417969 296.121094 103.617188 291.910156 104.878906 C 282.15625 107.796875 273.703125 115.476562 266.710938 122.578125 C 263.757812 125.589844 260.496094 128.480469 258.414062 132.234375 C 255.214844 137.953125 258.789062 141.777344 264.78125 141.476562 C 268.511719 141.285156 272.207031 140.824219 275.867188 140.089844 C 279.527344 139.359375 283.113281 138.359375 286.625 137.097656 C 290.140625 135.835938 293.542969 134.324219 296.832031 132.558594 C 300.121094 130.796875 303.265625 128.800781 306.257812 126.574219 Z M 306.257812 126.574219 " fill-opacity="1" fill-rule="nonzero"/><path fill="#ffd655" d="M 318.660156 193.164062 L 319.78125 193.003906 C 322.085938 192.742188 324.285156 192.125 326.386719 191.152344 C 333.335938 187.613281 332.425781 178.863281 328 173.605469 C 325.167969 170.25 321.019531 168.171875 316.722656 167.21875 C 306.785156 165.015625 295.652344 167.605469 286.070312 170.4375 C 282.019531 171.628906 277.757812 172.582031 274.121094 174.808594 C 268.542969 178.242188 269.792969 183.328125 275.167969 185.976562 C 278.515625 187.625 281.96875 189.023438 285.523438 190.164062 C 289.078125 191.304688 292.695312 192.183594 296.378906 192.789062 C 300.0625 193.398438 303.773438 193.734375 307.507812 193.796875 C 311.238281 193.859375 314.957031 193.648438 318.660156 193.164062 Z M 318.660156 193.164062 " fill-opacity="1" fill-rule="nonzero"/><path fill="#ffd655" d="M 296.957031 257.328125 L 298.03125 257.734375 C 300.167969 258.628906 302.386719 259.167969 304.695312 259.34375 C 312.496094 259.640625 315.972656 251.554688 314.667969 244.808594 C 313.835938 240.515625 311.230469 236.664062 307.957031 233.746094 C 300.355469 226.984375 289.375 223.820312 279.636719 221.609375 C 275.515625 220.671875 271.332031 219.425781 267.070312 219.601562 C 260.515625 219.882812 259.132812 224.929688 262.527344 229.863281 C 264.640625 232.933594 266.972656 235.835938 269.515625 238.5625 C 272.058594 241.292969 274.789062 243.820312 277.703125 246.144531 C 280.621094 248.472656 283.691406 250.570312 286.917969 252.445312 C 290.144531 254.320312 293.492188 255.945312 296.957031 257.328125 Z M 296.957031 257.328125 " fill-opacity="1" fill-rule="nonzero"/><path fill="#ffd655" d="M 246.695312 302.777344 C 246.929688 303.070312 247.171875 303.359375 247.417969 303.644531 C 248.84375 305.46875 250.523438 307.019531 252.457031 308.296875 C 259.121094 312.351562 266.097656 306.988281 268.257812 300.464844 C 269.636719 296.292969 269.238281 291.683594 267.800781 287.53125 C 264.46875 277.929688 256.425781 269.832031 249.003906 263.144531 C 245.867188 260.320312 242.828125 257.195312 239.011719 255.273438 C 233.148438 252.308594 229.46875 256.0625 230.042969 262.023438 C 230.390625 265.734375 231.007812 269.402344 231.894531 273.023438 C 232.78125 276.644531 233.929688 280.179688 235.339844 283.632812 C 236.75 287.085938 238.40625 290.414062 240.308594 293.625 C 242.210938 296.832031 244.339844 299.882812 246.695312 302.777344 Z M 246.695312 302.777344 " fill-opacity="1" fill-rule="nonzero"/><path fill="#ffd655" d="M 180.601562 317.96875 C 180.667969 318.34375 180.738281 318.714844 180.804688 319.082031 C 181.167969 321.371094 181.886719 323.542969 182.953125 325.59375 C 186.789062 332.382812 195.507812 331.097656 200.574219 326.453125 C 203.796875 323.488281 205.714844 319.265625 206.484375 314.941406 C 208.265625 304.933594 205.207031 293.9375 201.988281 284.496094 C 200.625 280.503906 199.496094 276.289062 197.105469 272.761719 C 193.4375 267.332031 188.40625 268.796875 185.976562 274.273438 C 184.464844 277.683594 183.214844 281.183594 182.21875 284.777344 C 181.226562 288.375 180.5 292.019531 180.042969 295.722656 C 179.589844 299.421875 179.410156 303.136719 179.5 306.867188 C 179.59375 310.59375 179.960938 314.292969 180.601562 317.96875 Z M 180.601562 317.96875 " fill-opacity="1" fill-rule="nonzero"/><path fill="#ffd655" d="M 115.496094 299.042969 C 115.371094 299.402344 115.246094 299.757812 115.128906 300.117188 C 114.328125 302.289062 113.886719 304.53125 113.808594 306.84375 C 113.84375 314.636719 122.078125 317.757812 128.769531 316.171875 C 133.066406 315.15625 136.773438 312.417969 139.554688 309.003906 C 146 301.136719 148.683594 290.042969 150.496094 280.230469 C 151.257812 276.085938 152.324219 271.855469 151.964844 267.605469 C 151.429688 261.082031 146.300781 259.90625 141.507812 263.507812 C 138.527344 265.75 135.722656 268.195312 133.101562 270.851562 C 130.480469 273.507812 128.066406 276.339844 125.863281 279.347656 C 123.660156 282.359375 121.6875 285.515625 119.953125 288.8125 C 118.214844 292.113281 116.726562 295.523438 115.496094 299.042969 Z M 115.496094 299.042969 " fill-opacity="1" fill-rule="nonzero"/><path fill="#ffd655" d="M 67.894531 250.8125 L 67.050781 251.574219 C 65.289062 253.074219 63.8125 254.816406 62.613281 256.796875 C 58.855469 263.621094 64.503906 270.351562 71.121094 272.230469 C 75.355469 273.429688 79.945312 272.835938 84.011719 271.226562 C 93.472656 267.472656 101.246094 259.121094 107.609375 251.433594 C 110.296875 248.183594 113.296875 244.996094 115.058594 241.128906 C 117.746094 235.164062 113.871094 231.652344 107.925781 232.460938 C 104.230469 232.964844 100.589844 233.738281 97.007812 234.777344 C 93.425781 235.816406 89.9375 237.117188 86.546875 238.667969 C 83.15625 240.222656 79.898438 242.019531 76.773438 244.054688 C 73.648438 246.085938 70.6875 248.339844 67.894531 250.8125 Z M 67.894531 250.8125 " fill-opacity="1" fill-rule="nonzero"/><path fill="#ffd655" d="M 49.886719 185.515625 L 48.8125 185.765625 C 46.535156 186.21875 44.386719 187.023438 42.367188 188.171875 C 35.742188 192.289062 37.394531 200.925781 42.253906 205.789062 C 45.359375 208.898438 49.667969 210.617188 54.023438 211.199219 C 64.109375 212.554688 74.96875 209.050781 84.285156 205.414062 C 88.222656 203.890625 92.390625 202.582031 95.820312 200.050781 C 101.09375 196.15625 99.414062 191.195312 93.835938 189.007812 C 90.359375 187.644531 86.800781 186.542969 83.160156 185.707031 C 79.523438 184.867188 75.84375 184.300781 72.121094 184.007812 C 68.398438 183.710938 64.671875 183.6875 60.949219 183.941406 C 57.222656 184.195312 53.535156 184.71875 49.886719 185.515625 Z M 49.886719 185.515625 " fill-opacity="1" fill-rule="nonzero"/><path fill="#ffd655" d="M 66.058594 119.742188 L 64.984375 119.425781 C 62.773438 118.714844 60.507812 118.367188 58.183594 118.390625 C 50.390625 118.761719 47.621094 127.105469 49.488281 133.71875 C 50.664062 137.945312 53.597656 141.539062 57.109375 144.175781 C 65.257812 150.269531 76.445312 152.488281 86.359375 153.867188 C 90.535156 154.453125 94.8125 155.34375 99.050781 154.800781 C 105.554688 153.96875 106.507812 148.824219 102.703125 144.191406 C 100.332031 141.308594 97.765625 138.617188 95 136.113281 C 92.234375 133.609375 89.296875 131.324219 86.195312 129.253906 C 83.089844 127.183594 79.851562 125.351562 76.476562 123.757812 C 73.101562 122.164062 69.628906 120.824219 66.058594 119.742188 Z M 66.058594 119.742188 " fill-opacity="1" fill-rule="nonzero"/><path fill="#ffd655" d="M 112.289062 70.195312 L 111.488281 69.394531 C 109.910156 67.699219 108.105469 66.296875 106.074219 65.191406 C 99.09375 61.714844 92.59375 67.652344 90.992188 74.308594 C 89.972656 78.601562 90.769531 83.136719 92.550781 87.148438 C 96.6875 96.441406 105.386719 103.835938 113.351562 109.859375 C 116.714844 112.402344 120.011719 115.261719 123.972656 116.835938 C 130.058594 119.273438 133.40625 115.226562 132.34375 109.324219 C 131.679688 105.660156 130.75 102.066406 129.554688 98.539062 C 128.359375 95.011719 126.914062 91.589844 125.214844 88.277344 C 123.515625 84.960938 121.585938 81.789062 119.417969 78.761719 C 117.253906 75.730469 114.875 72.875 112.289062 70.195312 Z M 112.289062 70.195312 " fill-opacity="1" fill-rule="nonzero"/><path fill="#32325b" d="M 173.78125 182.113281 C 173.46875 183.46875 173.390625 184.835938 173.550781 186.21875 C 173.710938 187.597656 174.097656 188.914062 174.710938 190.160156 C 175.863281 192.324219 177.523438 193.972656 179.695312 195.117188 C 183.824219 197.332031 189.324219 197.601562 193.347656 194.972656 C 194.617188 194.128906 195.683594 193.078125 196.542969 191.816406 C 197.402344 190.558594 197.988281 189.183594 198.308594 187.691406 C 198.390625 187.371094 198.410156 187.042969 198.367188 186.714844 C 198.324219 186.382812 198.21875 186.074219 198.054688 185.785156 C 197.890625 185.496094 197.679688 185.246094 197.417969 185.039062 C 197.15625 184.832031 196.867188 184.683594 196.546875 184.585938 C 196.226562 184.5 195.898438 184.480469 195.566406 184.519531 C 195.234375 184.5625 194.921875 184.667969 194.632812 184.832031 C 194.34375 184.996094 194.09375 185.210938 193.886719 185.472656 C 193.679688 185.734375 193.53125 186.027344 193.4375 186.347656 C 193.3125 186.875 193.160156 187.394531 192.980469 187.90625 C 192.9375 188.03125 192.773438 188.332031 193.015625 187.835938 C 192.960938 187.949219 192.910156 188.0625 192.851562 188.175781 C 192.734375 188.390625 192.621094 188.609375 192.5 188.820312 C 192.375 189.027344 192.230469 189.214844 192.101562 189.414062 C 192.460938 188.878906 192.058594 189.457031 191.949219 189.582031 C 191.644531 189.925781 191.296875 190.203125 190.960938 190.515625 C 191.445312 190.0625 190.960938 190.515625 190.796875 190.609375 C 190.628906 190.707031 190.417969 190.847656 190.226562 190.953125 C 190.035156 191.0625 189.828125 191.148438 189.636719 191.253906 C 189.441406 191.363281 189.242188 191.339844 189.78125 191.195312 C 189.671875 191.222656 189.578125 191.277344 189.46875 191.308594 C 189.046875 191.441406 188.625 191.578125 188.1875 191.671875 L 187.523438 191.789062 C 188.148438 191.683594 187.523438 191.789062 187.277344 191.789062 C 186.855469 191.816406 186.433594 191.816406 186.011719 191.789062 C 185.78125 191.789062 185.554688 191.753906 185.328125 191.738281 C 185.101562 191.722656 184.882812 191.628906 185.496094 191.765625 C 185.355469 191.730469 185.214844 191.714844 185.074219 191.6875 C 184.65625 191.613281 184.242188 191.511719 183.835938 191.394531 C 183.617188 191.328125 183.402344 191.253906 183.191406 191.179688 C 183.082031 191.140625 182.976562 191.09375 182.867188 191.0625 C 182.433594 190.910156 183.191406 191.238281 182.929688 191.0625 C 182.566406 190.847656 182.171875 190.691406 181.804688 190.476562 C 181.613281 190.359375 181.425781 190.242188 181.242188 190.113281 L 180.96875 189.917969 C 180.589844 189.667969 181.21875 190.175781 181.015625 189.957031 C 180.8125 189.738281 180.394531 189.417969 180.109375 189.101562 C 179.957031 188.941406 179.824219 188.765625 179.671875 188.605469 C 180.144531 189.097656 179.640625 188.546875 179.535156 188.375 C 179.425781 188.203125 179.265625 187.949219 179.148438 187.730469 C 179.097656 187.632812 179.050781 187.527344 178.996094 187.429688 C 178.769531 187.03125 179.097656 187.777344 178.996094 187.488281 C 178.851562 186.988281 178.679688 186.511719 178.5625 185.996094 C 178.5625 185.90625 178.46875 185.515625 178.535156 185.890625 C 178.597656 186.265625 178.535156 185.773438 178.535156 185.6875 C 178.535156 185.40625 178.503906 185.148438 178.535156 184.84375 C 178.566406 184.539062 178.535156 184.265625 178.582031 183.96875 C 178.582031 183.839844 178.667969 183.496094 178.582031 184.046875 C 178.621094 183.835938 178.660156 183.632812 178.699219 183.429688 C 178.78125 183.105469 178.800781 182.78125 178.753906 182.449219 C 178.710938 182.121094 178.605469 181.8125 178.441406 181.523438 C 178.277344 181.230469 178.0625 180.984375 177.804688 180.777344 C 177.542969 180.570312 177.253906 180.417969 176.933594 180.324219 C 176.609375 180.238281 176.285156 180.214844 175.953125 180.257812 C 175.621094 180.300781 175.308594 180.40625 175.019531 180.570312 C 174.726562 180.734375 174.480469 180.949219 174.273438 181.210938 C 174.066406 181.476562 173.917969 181.765625 173.824219 182.085938 Z M 173.78125 182.113281 " fill-opacity="1" fill-rule="nonzero"/><path fill="#32325b" d="M 226.175781 174.210938 C 226.535156 174.390625 226.878906 174.601562 227.199219 174.851562 C 227.519531 175.097656 227.8125 175.371094 228.078125 175.675781 C 228.347656 175.980469 228.582031 176.308594 228.78125 176.660156 C 228.984375 177.011719 229.148438 177.378906 229.277344 177.761719 C 229.40625 178.144531 229.5 178.535156 229.550781 178.9375 C 229.601562 179.335938 229.613281 179.738281 229.585938 180.144531 C 229.558594 180.546875 229.492188 180.941406 229.386719 181.332031 C 229.28125 181.722656 229.140625 182.101562 228.960938 182.460938 C 228.78125 182.824219 228.566406 183.164062 228.320312 183.484375 C 228.074219 183.804688 227.796875 184.097656 227.492188 184.367188 C 227.1875 184.632812 226.859375 184.863281 226.507812 185.066406 C 226.15625 185.269531 225.789062 185.433594 225.40625 185.5625 C 225.023438 185.691406 224.628906 185.78125 224.226562 185.835938 C 223.828125 185.886719 223.421875 185.898438 223.019531 185.871094 C 222.617188 185.84375 222.21875 185.777344 221.828125 185.671875 C 221.4375 185.566406 221.058594 185.425781 220.699219 185.246094 C 220.335938 185.066406 219.992188 184.851562 219.671875 184.605469 C 219.351562 184.359375 219.058594 184.082031 218.792969 183.777344 C 218.527344 183.472656 218.292969 183.144531 218.089844 182.796875 C 217.886719 182.445312 217.722656 182.078125 217.59375 181.695312 C 217.464844 181.3125 217.375 180.917969 217.320312 180.519531 C 217.269531 180.117188 217.257812 179.714844 217.285156 179.3125 C 217.3125 178.910156 217.378906 178.511719 217.484375 178.121094 C 217.589844 177.730469 217.730469 177.355469 217.910156 176.992188 C 218.09375 176.628906 218.304688 176.289062 218.550781 175.96875 C 218.800781 175.648438 219.074219 175.355469 219.378906 175.089844 C 219.683594 174.824219 220.011719 174.589844 220.363281 174.386719 C 220.714844 174.1875 221.082031 174.019531 221.464844 173.890625 C 221.851562 173.761719 222.242188 173.671875 222.644531 173.621094 C 223.046875 173.570312 223.449219 173.554688 223.851562 173.582031 C 224.257812 173.609375 224.652344 173.675781 225.042969 173.78125 C 225.433594 173.886719 225.8125 174.03125 226.175781 174.210938 Z M 226.175781 174.210938 " fill-opacity="1" fill-rule="nonzero"/><path fill="#fc81df" d="M 230.214844 198.371094 C 230.441406 199.035156 230.601562 199.71875 230.695312 200.414062 C 230.785156 201.113281 230.808594 201.8125 230.765625 202.511719 C 230.71875 203.214844 230.605469 203.90625 230.425781 204.582031 C 230.242188 205.261719 229.996094 205.917969 229.6875 206.550781 C 229.375 207.179688 229.007812 207.773438 228.578125 208.332031 C 228.148438 208.890625 227.671875 209.402344 227.144531 209.867188 C 226.613281 210.328125 226.042969 210.738281 225.4375 211.089844 C 224.828125 211.441406 224.1875 211.730469 223.523438 211.957031 C 222.855469 212.183594 222.175781 212.34375 221.476562 212.4375 C 220.777344 212.527344 220.078125 212.550781 219.375 212.507812 C 218.671875 212.460938 217.980469 212.347656 217.300781 212.167969 C 216.621094 211.984375 215.964844 211.738281 215.335938 211.429688 C 214.703125 211.117188 214.109375 210.75 213.550781 210.320312 C 212.992188 209.894531 212.480469 209.417969 212.015625 208.886719 C 211.550781 208.359375 211.140625 207.792969 210.789062 207.183594 C 210.4375 206.574219 210.148438 205.9375 209.917969 205.273438 C 209.691406 204.605469 209.535156 203.925781 209.441406 203.230469 C 209.347656 202.53125 209.324219 201.832031 209.371094 201.132812 C 209.414062 200.429688 209.527344 199.738281 209.710938 199.058594 C 209.890625 198.378906 210.136719 197.726562 210.449219 197.09375 C 210.761719 196.464844 211.128906 195.871094 211.558594 195.3125 C 211.984375 194.753906 212.464844 194.242188 212.992188 193.777344 C 213.519531 193.316406 214.089844 192.90625 214.699219 192.554688 C 215.308594 192.203125 215.945312 191.914062 216.613281 191.6875 C 217.28125 191.460938 217.960938 191.300781 218.660156 191.207031 C 219.355469 191.117188 220.058594 191.09375 220.757812 191.136719 C 221.460938 191.183594 222.152344 191.296875 222.832031 191.476562 C 223.511719 191.660156 224.167969 191.90625 224.800781 192.214844 C 225.433594 192.527344 226.027344 192.894531 226.585938 193.320312 C 227.144531 193.75 227.65625 194.226562 228.121094 194.753906 C 228.585938 195.285156 228.992188 195.851562 229.347656 196.460938 C 229.699219 197.070312 229.988281 197.707031 230.214844 198.371094 Z M 230.214844 198.371094 " fill-opacity="1" fill-rule="nonzero"/><path fill="#fc81df" d="M 158.714844 185.019531 C 158.800781 185.71875 158.816406 186.417969 158.761719 187.121094 C 158.710938 187.820312 158.589844 188.507812 158.402344 189.1875 C 158.210938 189.863281 157.957031 190.515625 157.640625 191.144531 C 157.324219 191.769531 156.949219 192.363281 156.511719 192.914062 C 156.078125 193.46875 155.59375 193.972656 155.0625 194.433594 C 154.527344 194.890625 153.953125 195.292969 153.339844 195.636719 C 152.726562 195.984375 152.085938 196.265625 151.417969 196.484375 C 150.75 196.703125 150.066406 196.855469 149.367188 196.941406 C 148.667969 197.027344 147.96875 197.042969 147.265625 196.988281 C 146.566406 196.9375 145.875 196.816406 145.195312 196.625 C 144.519531 196.4375 143.867188 196.183594 143.238281 195.867188 C 142.609375 195.550781 142.019531 195.175781 141.464844 194.742188 C 140.910156 194.308594 140.402344 193.824219 139.945312 193.292969 C 139.484375 192.757812 139.082031 192.1875 138.738281 191.574219 C 138.390625 190.960938 138.109375 190.320312 137.890625 189.652344 C 137.667969 188.984375 137.519531 188.304688 137.433594 187.605469 C 137.347656 186.90625 137.332031 186.207031 137.386719 185.507812 C 137.4375 184.804688 137.558594 184.117188 137.746094 183.4375 C 137.9375 182.761719 138.191406 182.109375 138.507812 181.480469 C 138.824219 180.855469 139.199219 180.265625 139.636719 179.710938 C 140.070312 179.15625 140.554688 178.652344 141.085938 178.195312 C 141.621094 177.734375 142.195312 177.332031 142.808594 176.988281 C 143.417969 176.644531 144.0625 176.359375 144.730469 176.140625 C 145.398438 175.921875 146.082031 175.769531 146.78125 175.683594 C 147.480469 175.601562 148.179688 175.585938 148.882812 175.636719 C 149.582031 175.691406 150.273438 175.8125 150.953125 176 C 151.628906 176.1875 152.28125 176.441406 152.910156 176.757812 C 153.539062 177.074219 154.128906 177.449219 154.683594 177.882812 C 155.238281 178.316406 155.746094 178.800781 156.203125 179.335938 C 156.664062 179.867188 157.066406 180.441406 157.410156 181.050781 C 157.757812 181.664062 158.039062 182.304688 158.257812 182.972656 C 158.476562 183.640625 158.628906 184.324219 158.714844 185.019531 Z M 158.714844 185.019531 " fill-opacity="1" fill-rule="nonzero"/><path fill="#32325b" d="M 156.84375 157.648438 C 157.234375 157.753906 157.609375 157.894531 157.972656 158.074219 C 158.335938 158.253906 158.679688 158.464844 159 158.710938 C 159.320312 158.957031 159.617188 159.234375 159.882812 159.535156 C 160.148438 159.839844 160.382812 160.167969 160.585938 160.519531 C 160.789062 160.867188 160.957031 161.234375 161.085938 161.617188 C 161.214844 162 161.308594 162.390625 161.359375 162.792969 C 161.414062 163.195312 161.425781 163.597656 161.398438 164 C 161.371094 164.402344 161.308594 164.800781 161.203125 165.191406 C 161.097656 165.582031 160.957031 165.957031 160.777344 166.320312 C 160.597656 166.683594 160.386719 167.023438 160.136719 167.347656 C 159.890625 167.667969 159.617188 167.960938 159.3125 168.226562 C 159.007812 168.492188 158.679688 168.726562 158.328125 168.929688 C 157.980469 169.132812 157.613281 169.296875 157.230469 169.429688 C 156.84375 169.558594 156.453125 169.648438 156.050781 169.703125 C 155.648438 169.753906 155.246094 169.769531 154.84375 169.742188 C 154.441406 169.714844 154.042969 169.648438 153.652344 169.546875 C 153.261719 169.441406 152.882812 169.296875 152.519531 169.121094 C 152.15625 168.941406 151.816406 168.730469 151.492188 168.484375 C 151.171875 168.238281 150.878906 167.960938 150.613281 167.65625 C 150.34375 167.351562 150.109375 167.027344 149.90625 166.675781 C 149.703125 166.324219 149.539062 165.960938 149.410156 165.578125 C 149.277344 165.195312 149.1875 164.800781 149.132812 164.402344 C 149.082031 164 149.066406 163.597656 149.09375 163.195312 C 149.121094 162.789062 149.1875 162.394531 149.292969 162.003906 C 149.394531 161.613281 149.539062 161.234375 149.71875 160.875 C 149.894531 160.511719 150.109375 160.167969 150.355469 159.847656 C 150.601562 159.527344 150.878906 159.234375 151.183594 158.96875 C 151.484375 158.699219 151.8125 158.464844 152.164062 158.265625 C 152.515625 158.0625 152.882812 157.894531 153.265625 157.765625 C 153.648438 157.636719 154.039062 157.542969 154.441406 157.492188 C 154.84375 157.4375 155.246094 157.425781 155.648438 157.453125 C 156.054688 157.480469 156.453125 157.542969 156.84375 157.648438 Z M 156.84375 157.648438 " fill-opacity="1" fill-rule="nonzero"/></svg>